<mxfile host="app.diagrams.net" modified="2023-06-17T21:01:18.743Z" agent="Mozilla/5.0 (X11; Linux x86_64) AppleWebKit/537.36 (KHTML, like Gecko) Chrome/111.0.0.0 Safari/537.36" etag="Xg0WBy_2ycoV6OyCFTgQ" version="21.4.0" type="github">
  <diagram name="PÃ¡gina-1" id="TS4pNIzLjL9XoEnISgbn">
    <mxGraphModel dx="1707" dy="457" grid="1" gridSize="10" guides="1" tooltips="1" connect="1" arrows="1" fold="1" page="1" pageScale="1" pageWidth="827" pageHeight="1169" math="0" shadow="0">
      <root>
        <mxCell id="0" />
        <mxCell id="1" parent="0" />
        <mxCell id="mXnrIRhV5FLaWiLHF2uU-2" value="" style="rounded=1;whiteSpace=wrap;html=1;" vertex="1" parent="1">
          <mxGeometry x="200" y="130" width="400" height="110" as="geometry" />
        </mxCell>
        <mxCell id="mXnrIRhV5FLaWiLHF2uU-3" value="Client Microservice" style="text;strokeColor=none;align=center;fillColor=none;html=1;verticalAlign=middle;whiteSpace=wrap;rounded=0;" vertex="1" parent="1">
          <mxGeometry x="325" y="110" width="120" height="30" as="geometry" />
        </mxCell>
        <mxCell id="mXnrIRhV5FLaWiLHF2uU-18" style="edgeStyle=orthogonalEdgeStyle;rounded=0;orthogonalLoop=1;jettySize=auto;html=1;exitX=0.25;exitY=0;exitDx=0;exitDy=0;entryX=0.5;entryY=1;entryDx=0;entryDy=0;" edge="1" parent="1" source="mXnrIRhV5FLaWiLHF2uU-5" target="mXnrIRhV5FLaWiLHF2uU-2">
          <mxGeometry relative="1" as="geometry" />
        </mxCell>
        <mxCell id="mXnrIRhV5FLaWiLHF2uU-5" value="" style="rounded=1;whiteSpace=wrap;html=1;" vertex="1" parent="1">
          <mxGeometry x="490" y="320" width="430" height="140" as="geometry" />
        </mxCell>
        <mxCell id="mXnrIRhV5FLaWiLHF2uU-6" value="Product Microservice" style="text;strokeColor=none;align=center;fillColor=none;html=1;verticalAlign=middle;whiteSpace=wrap;rounded=0;" vertex="1" parent="1">
          <mxGeometry x="615" y="300" width="120" height="30" as="geometry" />
        </mxCell>
        <mxCell id="mXnrIRhV5FLaWiLHF2uU-17" style="edgeStyle=orthogonalEdgeStyle;rounded=0;orthogonalLoop=1;jettySize=auto;html=1;entryX=0;entryY=0.5;entryDx=0;entryDy=0;" edge="1" parent="1" source="mXnrIRhV5FLaWiLHF2uU-9" target="mXnrIRhV5FLaWiLHF2uU-5">
          <mxGeometry relative="1" as="geometry" />
        </mxCell>
        <mxCell id="mXnrIRhV5FLaWiLHF2uU-9" value="" style="rounded=1;whiteSpace=wrap;html=1;" vertex="1" parent="1">
          <mxGeometry x="-20" y="330" width="260" height="140" as="geometry" />
        </mxCell>
        <mxCell id="mXnrIRhV5FLaWiLHF2uU-10" value="Movements Microservice" style="text;strokeColor=none;align=center;fillColor=none;html=1;verticalAlign=middle;whiteSpace=wrap;rounded=0;" vertex="1" parent="1">
          <mxGeometry x="45" y="300" width="120" height="30" as="geometry" />
        </mxCell>
        <mxCell id="mXnrIRhV5FLaWiLHF2uU-11" value="personalClient" style="rounded=1;whiteSpace=wrap;html=1;" vertex="1" parent="1">
          <mxGeometry x="210" y="155" width="120" height="60" as="geometry" />
        </mxCell>
        <mxCell id="mXnrIRhV5FLaWiLHF2uU-12" value="enterpriceClient" style="rounded=1;whiteSpace=wrap;html=1;" vertex="1" parent="1">
          <mxGeometry x="430" y="155" width="120" height="60" as="geometry" />
        </mxCell>
        <mxCell id="mXnrIRhV5FLaWiLHF2uU-13" value="&lt;div style=&quot;text-align: left;&quot;&gt;&lt;span style=&quot;background-color: initial;&quot;&gt;savingsAccount&lt;/span&gt;&lt;/div&gt;&lt;div style=&quot;text-align: left;&quot;&gt;&lt;span style=&quot;background-color: initial;&quot;&gt;currentAccount&lt;/span&gt;&lt;/div&gt;&lt;div style=&quot;text-align: left;&quot;&gt;certificateDeposit&lt;/div&gt;" style="rounded=1;whiteSpace=wrap;html=1;" vertex="1" parent="1">
          <mxGeometry x="560" y="380" width="120" height="60" as="geometry" />
        </mxCell>
        <mxCell id="mXnrIRhV5FLaWiLHF2uU-14" value="Pasive" style="text;strokeColor=none;align=center;fillColor=none;html=1;verticalAlign=middle;whiteSpace=wrap;rounded=0;" vertex="1" parent="1">
          <mxGeometry x="590" y="350" width="60" height="30" as="geometry" />
        </mxCell>
        <mxCell id="mXnrIRhV5FLaWiLHF2uU-15" value="&lt;div style=&quot;text-align: left;&quot;&gt;&lt;span style=&quot;background-color: initial;&quot;&gt;personalLoal&lt;/span&gt;&lt;/div&gt;&lt;div style=&quot;text-align: left;&quot;&gt;&lt;span style=&quot;background-color: initial;&quot;&gt;enterpriceLoan&lt;/span&gt;&lt;/div&gt;&lt;div style=&quot;text-align: left;&quot;&gt;&lt;span style=&quot;background-color: initial;&quot;&gt;personalCreditCard&lt;/span&gt;&lt;/div&gt;&lt;div style=&quot;text-align: left;&quot;&gt;&lt;br&gt;&lt;/div&gt;" style="rounded=1;whiteSpace=wrap;html=1;" vertex="1" parent="1">
          <mxGeometry x="735" y="380" width="120" height="60" as="geometry" />
        </mxCell>
        <mxCell id="mXnrIRhV5FLaWiLHF2uU-16" value="Active" style="text;strokeColor=none;align=center;fillColor=none;html=1;verticalAlign=middle;whiteSpace=wrap;rounded=0;" vertex="1" parent="1">
          <mxGeometry x="765" y="350" width="60" height="30" as="geometry" />
        </mxCell>
      </root>
    </mxGraphModel>
  </diagram>
</mxfile>
